<svg width="207" height="33" viewBox="0 0 207 33" fill="none" xmlns="http://www.w3.org/2000/svg">
<path d="M0.376687 25V0.272727H5.60467V10.4751H16.2176V0.272727H21.4335V25H16.2176V14.7855H5.60467V25H0.376687ZM34.099 25.3622C32.1913 25.3622 30.5493 24.9759 29.1729 24.2031C27.8045 23.4223 26.75 22.3196 26.0095 20.8949C25.269 19.4621 24.8987 17.7678 24.8987 15.8118C24.8987 13.9041 25.269 12.2299 26.0095 10.7891C26.75 9.34825 27.7924 8.22538 29.1366 7.42045C30.4889 6.61553 32.0746 6.21307 33.8937 6.21307C35.1172 6.21307 36.2562 6.41027 37.3106 6.80469C38.3731 7.19105 39.2988 7.77462 40.0876 8.5554C40.8845 9.33617 41.5043 10.3182 41.947 11.5014C42.3897 12.6766 42.6111 14.053 42.6111 15.6307V17.0433H26.9513V13.8558H37.7694C37.7694 13.1153 37.6085 12.4593 37.2865 11.8878C36.9645 11.3163 36.5178 10.8696 35.9463 10.5476C35.3828 10.2176 34.7268 10.0526 33.9783 10.0526C33.1975 10.0526 32.5052 10.2337 31.9015 10.5959C31.3059 10.95 30.839 11.429 30.501 12.0327C30.1629 12.6283 29.9898 13.2924 29.9818 14.0249V17.0554C29.9818 17.973 30.1508 18.7659 30.4889 19.4339C30.835 20.102 31.322 20.6172 31.9498 20.9794C32.5777 21.3416 33.3222 21.5227 34.1835 21.5227C34.755 21.5227 35.2782 21.4422 35.7531 21.2812C36.228 21.1203 36.6345 20.8788 36.9726 20.5568C37.3106 20.2348 37.5682 19.8404 37.7453 19.3736L42.5024 19.6875C42.2609 20.8305 41.7659 21.8286 41.0173 22.6818C40.2768 23.527 39.3189 24.187 38.1437 24.6619C36.9766 25.1288 35.6283 25.3622 34.099 25.3622ZM51.2559 25.3501C50.0727 25.3501 49.0183 25.1449 48.0926 24.7344C47.1669 24.3158 46.4345 23.7 45.8952 22.8871C45.3639 22.0661 45.0983 21.0438 45.0983 19.8203C45.0983 18.79 45.2874 17.9247 45.6657 17.2244C46.0441 16.5241 46.5592 15.9607 47.2112 15.5341C47.8632 15.1075 48.6037 14.7855 49.4328 14.5682C50.2699 14.3509 51.1473 14.1979 52.0649 14.1094C53.1435 13.9967 54.0128 13.892 54.6729 13.7955C55.3329 13.6908 55.8118 13.5379 56.1096 13.3366C56.4075 13.1354 56.5564 12.8376 56.5564 12.4432V12.3707C56.5564 11.6061 56.3149 11.0144 55.8319 10.5959C55.357 10.1773 54.6809 9.96804 53.8035 9.96804C52.8779 9.96804 52.1414 10.1733 51.594 10.5838C51.0467 10.9863 50.6845 11.4934 50.5074 12.1051L45.7503 11.7188C45.9917 10.5919 46.4666 9.6179 47.175 8.79688C47.8833 7.9678 48.7969 7.33191 49.9157 6.8892C51.0426 6.43845 52.3466 6.21307 53.8277 6.21307C54.858 6.21307 55.844 6.33381 56.7858 6.57528C57.7356 6.81676 58.5767 7.19105 59.3092 7.69815C60.0497 8.20526 60.6333 8.85724 61.0599 9.65412C61.4865 10.4429 61.6998 11.3887 61.6998 12.4915V25H56.822V22.4283H56.6771C56.3793 23.0078 55.9809 23.5189 55.4818 23.9616C54.9827 24.3963 54.3831 24.7384 53.6828 24.9879C52.9825 25.2294 52.1736 25.3501 51.2559 25.3501ZM52.729 21.8004C53.4856 21.8004 54.1537 21.6515 54.7332 21.3537C55.3128 21.0478 55.7675 20.6373 56.0976 20.1222C56.4276 19.607 56.5926 19.0234 56.5926 18.3714V16.4034C56.4316 16.508 56.2103 16.6046 55.9285 16.6932C55.6549 16.7737 55.345 16.8501 54.9988 16.9226C54.6527 16.987 54.3066 17.0473 53.9605 17.1037C53.6144 17.152 53.3005 17.1963 53.0187 17.2365C52.415 17.325 51.8878 17.4659 51.4371 17.6591C50.9863 17.8523 50.6362 18.1139 50.3866 18.4439C50.1371 18.7659 50.0123 19.1683 50.0123 19.6513C50.0123 20.3516 50.2659 20.8868 50.773 21.2571C51.2881 21.6193 51.9401 21.8004 52.729 21.8004ZM72.5241 25.3018C71.1154 25.3018 69.8396 24.9396 68.6966 24.2152C67.5617 23.4827 66.6602 22.4081 65.9921 20.9915C65.3321 19.5668 65.002 17.8201 65.002 15.7514C65.002 13.6264 65.3441 11.8596 66.0283 10.451C66.7125 9.03433 67.6221 7.97585 68.757 7.27557C69.9 6.56724 71.1517 6.21307 72.512 6.21307C73.5503 6.21307 74.4156 6.39015 75.1079 6.74432C75.8082 7.09044 76.3716 7.52509 76.7982 8.04829C77.2329 8.56345 77.5629 9.07055 77.7883 9.5696H77.9452V0.272727H83.0766V25H78.0056V22.0298H77.7883C77.5468 22.545 77.2047 23.0561 76.762 23.5632C76.3273 24.0623 75.7599 24.4768 75.0596 24.8068C74.3673 25.1368 73.5222 25.3018 72.5241 25.3018ZM74.154 21.2088C74.9831 21.2088 75.6834 20.9834 76.2549 20.5327C76.8344 20.0739 77.2771 19.4339 77.583 18.6129C77.8969 17.7919 78.0539 16.83 78.0539 15.7273C78.0539 14.6245 77.901 13.6667 77.5951 12.8537C77.2892 12.0407 76.8465 11.4129 76.267 10.9702C75.6874 10.5275 74.9831 10.3061 74.154 10.3061C73.3089 10.3061 72.5965 10.5355 72.017 10.9943C71.4374 11.4531 70.9987 12.089 70.7009 12.902C70.4031 13.715 70.2542 14.6567 70.2542 15.7273C70.2542 16.8059 70.4031 17.7597 70.7009 18.5888C71.0068 19.4098 71.4455 20.0537 72.017 20.5206C72.5965 20.9794 73.3089 21.2088 74.154 21.2088ZM95.7572 25.3622C93.8495 25.3622 92.2075 24.9759 90.8311 24.2031C89.4627 23.4223 88.4082 22.3196 87.6677 20.8949C86.9272 19.4621 86.5569 17.7678 86.5569 15.8118C86.5569 13.9041 86.9272 12.2299 87.6677 10.7891C88.4082 9.34825 89.4506 8.22538 90.7948 7.42045C92.1471 6.61553 93.7328 6.21307 95.5519 6.21307C96.7754 6.21307 97.9144 6.41027 98.9688 6.80469C100.031 7.19105 100.957 7.77462 101.746 8.5554C102.543 9.33617 103.162 10.3182 103.605 11.5014C104.048 12.6766 104.269 14.053 104.269 15.6307V17.0433H88.6095V13.8558H99.4276C99.4276 13.1153 99.2667 12.4593 98.9447 11.8878C98.6227 11.3163 98.176 10.8696 97.6045 10.5476C97.041 10.2176 96.385 10.0526 95.6365 10.0526C94.8557 10.0526 94.1634 10.2337 93.5597 10.5959C92.9641 10.95 92.4972 11.429 92.1592 12.0327C91.8211 12.6283 91.6481 13.2924 91.64 14.0249V17.0554C91.64 17.973 91.809 18.7659 92.1471 19.4339C92.4932 20.102 92.9802 20.6172 93.608 20.9794C94.2359 21.3416 94.9804 21.5227 95.8417 21.5227C96.4132 21.5227 96.9364 21.4422 97.4113 21.2812C97.8862 21.1203 98.2927 20.8788 98.6308 20.5568C98.9688 20.2348 99.2264 19.8404 99.4035 19.3736L104.161 19.6875C103.919 20.8305 103.424 21.8286 102.676 22.6818C101.935 23.527 100.977 24.187 99.8019 24.6619C98.6348 25.1288 97.2865 25.3622 95.7572 25.3622ZM107.626 25V6.45454H112.612V9.69034H112.805C113.144 8.5393 113.711 7.66998 114.508 7.08239C115.305 6.48674 116.222 6.18892 117.261 6.18892C117.518 6.18892 117.796 6.20502 118.094 6.23721C118.392 6.26941 118.653 6.31368 118.879 6.37003V10.9339C118.637 10.8615 118.303 10.7971 117.877 10.7408C117.45 10.6844 117.06 10.6562 116.705 10.6562C115.949 10.6562 115.273 10.8213 114.677 11.1513C114.089 11.4732 113.622 11.924 113.276 12.5036C112.938 13.0831 112.769 13.7512 112.769 14.5078V25H107.626ZM130.349 25V0.272727H133.343V22.3438H144.837V25H130.349ZM156.622 25.3864C154.947 25.3864 153.478 24.9879 152.215 24.1911C150.959 23.3942 149.977 22.2794 149.269 20.8466C148.568 19.4138 148.218 17.7396 148.218 15.8239C148.218 13.892 148.568 12.2057 149.269 10.7649C149.977 9.3241 150.959 8.20526 152.215 7.40838C153.478 6.61151 154.947 6.21307 156.622 6.21307C158.296 6.21307 159.761 6.61151 161.016 7.40838C162.28 8.20526 163.262 9.3241 163.962 10.7649C164.671 12.2057 165.025 13.892 165.025 15.8239C165.025 17.7396 164.671 19.4138 163.962 20.8466C163.262 22.2794 162.28 23.3942 161.016 24.1911C159.761 24.9879 158.296 25.3864 156.622 25.3864ZM156.622 22.8267C157.893 22.8267 158.94 22.5007 159.761 21.8487C160.582 21.1967 161.189 20.3395 161.584 19.277C161.978 18.2145 162.176 17.0634 162.176 15.8239C162.176 14.5843 161.978 13.4292 161.584 12.3587C161.189 11.2881 160.582 10.4228 159.761 9.76278C158.94 9.10275 157.893 8.77273 156.622 8.77273C155.35 8.77273 154.303 9.10275 153.482 9.76278C152.661 10.4228 152.054 11.2881 151.659 12.3587C151.265 13.4292 151.068 14.5843 151.068 15.8239C151.068 17.0634 151.265 18.2145 151.659 19.277C152.054 20.3395 152.661 21.1967 153.482 21.8487C154.303 22.5007 155.35 22.8267 156.622 22.8267ZM176.86 32.3409C175.484 32.3409 174.301 32.1638 173.311 31.8097C172.321 31.4635 171.496 31.0047 170.835 30.4332C170.184 29.8698 169.664 29.2661 169.278 28.6222L171.548 27.0284C171.805 27.3665 172.131 27.7528 172.526 28.1875C172.92 28.6302 173.46 29.0125 174.144 29.3345C174.836 29.6645 175.742 29.8295 176.86 29.8295C178.358 29.8295 179.593 29.4673 180.567 28.7429C181.541 28.0185 182.028 26.8835 182.028 25.3381V21.571H181.786C181.577 21.9091 181.279 22.3277 180.893 22.8267C180.515 23.3177 179.967 23.7564 179.251 24.1428C178.543 24.5211 177.585 24.7102 176.377 24.7102C174.88 24.7102 173.536 24.3561 172.345 23.6477C171.161 22.9394 170.224 21.9091 169.532 20.5568C168.847 19.2045 168.505 17.5625 168.505 15.6307C168.505 13.7311 168.839 12.0769 169.507 10.6683C170.175 9.25166 171.105 8.15696 172.296 7.38423C173.488 6.60346 174.864 6.21307 176.426 6.21307C177.633 6.21307 178.591 6.4143 179.299 6.81676C180.016 7.21117 180.563 7.66193 180.941 8.16903C181.328 8.66809 181.626 9.0786 181.835 9.40057H182.125V6.45454H184.877V25.5312C184.877 27.125 184.515 28.4209 183.791 29.419C183.074 30.4252 182.108 31.1617 180.893 31.6286C179.686 32.1035 178.341 32.3409 176.86 32.3409ZM176.764 22.1506C177.907 22.1506 178.873 21.889 179.661 21.3658C180.45 20.8426 181.05 20.09 181.46 19.108C181.871 18.1259 182.076 16.9508 182.076 15.5824C182.076 14.2462 181.875 13.067 181.473 12.0447C181.07 11.0225 180.474 10.2216 179.686 9.64204C178.897 9.0625 177.923 8.77273 176.764 8.77273C175.556 8.77273 174.55 9.0786 173.745 9.69034C172.948 10.3021 172.349 11.1231 171.946 12.1534C171.552 13.1837 171.355 14.3267 171.355 15.5824C171.355 16.8703 171.556 18.0092 171.958 18.9993C172.369 19.9813 172.973 20.754 173.769 21.3175C174.574 21.8729 175.572 22.1506 176.764 22.1506ZM197.627 25.3864C195.953 25.3864 194.484 24.9879 193.22 24.1911C191.965 23.3942 190.983 22.2794 190.274 20.8466C189.574 19.4138 189.224 17.7396 189.224 15.8239C189.224 13.892 189.574 12.2057 190.274 10.7649C190.983 9.3241 191.965 8.20526 193.22 7.40838C194.484 6.61151 195.953 6.21307 197.627 6.21307C199.302 6.21307 200.767 6.61151 202.022 7.40838C203.286 8.20526 204.268 9.3241 204.968 10.7649C205.677 12.2057 206.031 13.892 206.031 15.8239C206.031 17.7396 205.677 19.4138 204.968 20.8466C204.268 22.2794 203.286 23.3942 202.022 24.1911C200.767 24.9879 199.302 25.3864 197.627 25.3864ZM197.627 22.8267C198.899 22.8267 199.946 22.5007 200.767 21.8487C201.588 21.1967 202.195 20.3395 202.59 19.277C202.984 18.2145 203.181 17.0634 203.181 15.8239C203.181 14.5843 202.984 13.4292 202.59 12.3587C202.195 11.2881 201.588 10.4228 200.767 9.76278C199.946 9.10275 198.899 8.77273 197.627 8.77273C196.356 8.77273 195.309 9.10275 194.488 9.76278C193.667 10.4228 193.059 11.2881 192.665 12.3587C192.271 13.4292 192.073 14.5843 192.073 15.8239C192.073 17.0634 192.271 18.2145 192.665 19.277C193.059 20.3395 193.667 21.1967 194.488 21.8487C195.309 22.5007 196.356 22.8267 197.627 22.8267Z" fill="#F9FAF8"/>
</svg>
